{"glyphs":{":":{"x_min":0,"x_max":240,"ha":240,"o":"m 255 563 b 259 583 245 599 226 599 b 206 599 187 583 184 563 b 180 543 193 527 213 527 b 233 527 252 543 255 563 z m 162 34 b 165 54 152 70 132 70 b 113 70 94 54 91 34 b 87 15 100 -1 120 -1 b 140 -1 158 15 162 34 z"},"$":{"x_min":0,"x_max":632,"ha":632,"o":"m 454 738 l 445 700 b 323 697 215 620 190 519 b 164 419 213 364 355 331 l 282 46 b 207 54 153 85 110 137 b 108 140 103 144 94 144 b 81 144 66 132 63 119 b 61 110 63 104 68 98 b 121 40 184 8 269 1 l 250 -78 b 246 -91 254 -102 267 -102 b 280 -102 294 -91 298 -78 l 317 0 b 443 4 551 79 578 185 b 602 283 553 340 408 372 l 479 652 b 531 646 574 626 613 587 b 618 581 623 580 629 580 b 643 580 658 591 661 605 b 664 615 660 621 653 628 b 609 668 564 692 493 698 l 502 738 b 506 751 498 762 485 762 b 472 762 458 751 454 738 z m 526 181 b 507 105 426 47 326 45 l 396 321 b 518 292 542 250 526 181 z m 242 523 b 260 595 338 653 436 655 l 368 382 b 246 413 224 455 242 523 z"},"?":{"x_min":0,"x_max":534,"ha":534,"o":"m 139 68 b 127 70 115 61 112 49 l 108 27 b 106 14 115 2 127 0 b 129 -1 130 -1 131 -1 b 142 -1 152 7 154 19 l 158 41 b 160 53 152 65 139 68 z m 247 699 b 167 699 92 657 45 594 b 37 584 39 569 49 562 b 59 554 74 556 82 566 b 121 618 184 653 247 653 b 330 652 384 595 385 517 b 385 508 384 498 382 487 b 366 393 273 313 179 314 b 167 314 157 305 156 293 b 155 292 155 292 155 291 l 133 166 b 131 153 139 141 152 139 b 153 138 155 138 156 138 b 167 138 177 146 179 158 l 198 269 b 309 279 408 368 428 479 b 430 492 432 505 432 517 b 432 568 413 614 379 647 b 346 680 300 699 247 699 z"},"<":{"x_min":0,"x_max":620,"ha":620,"o":"m 446 692 l 70 371 b 69 370 68 369 67 368 b 67 368 67 367 66 367 b 66 366 65 365 64 364 b 64 363 64 363 63 362 b 63 361 62 360 62 359 b 62 358 61 358 61 357 b 61 356 61 355 61 354 b 60 353 60 352 60 351 b 60 351 60 350 60 349 b 60 348 60 347 60 346 b 60 345 60 345 61 344 b 61 343 61 342 61 340 b 61 340 62 339 62 339 b 62 338 63 336 64 335 b 64 335 64 335 64 334 b 65 333 66 332 66 331 l 329 9 b 334 2 343 -1 351 -1 b 357 -1 364 1 369 5 b 381 15 383 33 373 46 l 129 345 l 483 648 b 495 659 496 677 486 689 b 476 701 458 702 446 692 z"},"'":{"x_min":0,"x_max":230,"ha":230,"o":"m 70 524 b 68 514 75 509 82 509 b 91 509 119 523 142 541 b 163 559 178 589 190 645 l 195 670 b 200 688 188 703 170 703 b 152 703 134 688 129 670 l 125 649 b 121 629 131 618 145 614 b 140 579 122 557 81 537 b 75 534 71 529 70 524 z"},"=":{"x_min":0,"x_max":620,"ha":620,"o":"m 477 267 l 107 267 b 92 267 79 254 79 239 b 79 223 92 210 107 210 l 477 210 b 494 210 506 223 506 239 b 506 254 494 267 477 267 z m 517 490 l 147 490 b 131 490 118 477 118 462 b 118 445 131 433 147 433 l 517 433 b 532 433 545 445 545 462 b 545 477 532 490 517 490 z"},"a":{"x_min":0,"x_max":619,"ha":619,"o":"m 235 0 b 235 0 235 0 235 0 b 310 1 380 36 430 92 l 419 28 b 417 15 425 3 438 0 b 440 0 441 0 442 0 b 454 0 464 8 466 20 l 544 460 b 546 473 537 485 524 488 b 511 490 499 481 497 468 l 483 389 b 475 404 465 417 454 429 b 419 466 370 488 313 488 b 184 487 68 380 44 248 b 41 233 40 218 40 203 b 40 146 59 96 94 59 b 129 22 178 0 235 0 z m 91 240 b 110 350 211 440 312 440 b 312 440 313 440 313 440 b 402 439 460 375 461 285 b 461 273 460 261 458 248 l 458 248 b 439 137 336 47 235 48 b 148 49 88 113 87 203 b 87 215 88 227 91 240 z"},"L":{"x_min":0,"x_max":619,"ha":619,"o":"m 515 23 b 515 36 504 47 490 47 l 159 47 l 269 670 b 271 683 262 696 249 698 b 236 700 223 692 221 678 l 106 27 b 104 14 112 1 126 -1 b 127 -1 129 -1 130 -1 b 130 -1 131 -1 131 -1 b 131 -1 132 -1 132 -1 l 490 -1 b 504 -1 515 9 515 23 z"},"3":{"x_min":0,"x_max":610,"ha":610,"o":"m 587 664 b 589 667 591 671 591 675 b 594 689 585 700 571 700 l 244 700 b 230 700 217 689 214 675 b 212 661 221 650 235 650 l 503 650 l 297 471 b 286 461 283 445 291 435 b 291 435 292 435 292 435 b 296 429 302 425 310 425 b 358 425 403 407 433 370 b 463 334 472 286 464 238 b 456 190 429 142 386 105 b 342 69 291 51 243 51 b 195 51 151 69 121 105 b 113 115 97 115 85 105 b 74 95 71 79 79 70 l 79 70 b 117 23 174 0 234 0 b 234 0 234 0 235 0 b 295 0 360 24 415 70 b 470 116 504 177 514 238 b 525 299 513 360 474 406 b 447 440 408 461 366 470 l 580 656 b 583 658 585 661 587 664 z"},";":{"x_min":0,"x_max":240,"ha":240,"o":"m 237 600 b 216 600 198 584 195 564 b 191 545 204 529 224 529 b 243 529 263 545 266 564 b 269 584 256 600 237 600 z m 60 -88 b 59 -98 66 -103 73 -103 b 82 -103 109 -89 128 -71 b 148 -53 161 -23 167 33 l 169 58 b 171 77 159 91 140 91 b 121 91 105 77 103 58 l 101 37 b 99 17 110 6 124 2 b 124 -33 107 -55 69 -75 b 64 -78 60 -83 60 -88 z"},"J":{"x_min":0,"x_max":594,"ha":594,"o":"m 93 174 b 91 188 78 197 65 195 b 52 193 42 181 44 167 b 58 71 139 -1 244 -1 b 244 -1 245 -1 245 -1 b 376 -1 496 102 520 232 l 597 670 b 599 683 591 696 577 698 b 564 701 551 692 549 678 l 472 240 b 454 135 350 47 245 48 b 161 48 104 100 93 174 z"},"V":{"x_min":0,"x_max":750,"ha":750,"o":"m 653 664 b 660 676 656 691 644 698 b 633 705 618 701 611 689 l 252 89 l 107 683 b 104 696 91 704 78 700 b 64 697 56 684 60 671 l 219 20 b 220 17 221 14 223 11 b 223 11 223 11 223 11 b 224 10 225 9 226 8 b 226 8 226 8 227 7 b 228 6 229 6 230 5 b 230 5 230 5 230 5 b 230 5 230 5 231 5 b 232 4 234 3 236 2 b 236 2 237 2 237 2 b 239 1 241 1 243 1 b 243 1 243 1 243 1 b 243 1 243 1 243 1 b 243 1 243 1 243 1 b 245 1 247 1 249 2 b 249 2 249 2 249 2 b 249 2 250 2 250 2 b 251 3 253 3 254 4 b 255 4 255 5 256 5 b 257 6 258 6 259 7 b 259 8 260 8 260 9 b 261 10 262 11 263 12 b 263 12 264 13 264 13 l 653 664 z"},"\"":{"x_min":0,"x_max":410,"ha":410,"o":"m 250 461 b 248 446 255 442 264 442 b 273 442 277 447 281 460 l 338 661 b 340 670 343 679 343 685 b 343 697 336 702 327 702 l 308 702 b 292 702 283 694 280 676 z m 70 461 b 68 446 75 442 84 442 b 93 442 97 447 101 460 l 158 661 b 160 670 163 679 163 685 b 163 697 156 702 147 702 l 128 702 b 112 702 103 694 100 676 z"},"7":{"x_min":0,"x_max":587,"ha":587,"o":"m 503 665 b 503 666 504 667 504 668 b 505 669 505 669 505 670 b 505 671 505 672 505 673 b 506 673 506 674 506 675 b 506 676 506 676 506 677 b 506 677 506 677 506 677 b 506 678 506 679 506 680 b 505 681 505 681 505 682 b 505 683 505 684 505 684 b 504 685 504 686 504 687 b 503 687 503 688 503 689 b 502 689 502 690 501 691 b 501 691 500 692 500 692 b 499 693 499 694 498 694 b 498 695 497 695 497 696 b 496 696 495 697 494 697 b 494 697 494 698 494 698 b 494 698 493 698 493 698 b 492 699 491 699 490 699 b 489 700 489 700 488 700 b 487 700 486 701 486 701 b 485 701 484 701 483 701 b 482 701 482 701 481 701 l 104 701 b 91 701 80 690 80 677 b 80 663 91 652 104 652 l 438 652 l 71 38 b 64 27 68 12 80 5 b 84 2 88 1 92 1 b 101 1 109 5 113 13 l 502 664 b 503 665 503 665 503 665 z"},"S":{"x_min":0,"x_max":667,"ha":667,"o":"m 73 100 l 73 100 b 121 54 204 1 308 0 l 308 0 b 377 0 443 21 495 55 l 495 55 b 548 88 587 137 597 193 l 597 193 b 607 248 584 292 544 322 l 544 322 b 504 352 447 372 380 385 l 378 385 l 378 385 b 319 396 271 414 240 437 l 240 437 b 210 460 198 486 204 521 l 204 521 b 210 556 236 589 275 615 l 275 615 b 314 640 367 657 422 657 l 422 657 b 498 657 550 619 598 584 l 598 584 b 607 577 621 580 630 590 l 630 590 b 638 600 638 614 629 620 l 629 620 b 581 656 520 700 429 700 l 429 700 b 366 700 304 682 255 650 l 255 650 b 207 619 170 573 161 521 l 161 521 b 151 469 172 428 210 400 l 210 400 b 247 372 300 354 362 342 l 364 342 l 364 342 b 428 329 481 311 514 286 l 514 286 b 547 260 560 232 553 193 l 553 193 b 547 154 519 118 476 90 l 476 90 b 433 62 376 44 316 44 l 316 44 b 227 44 150 92 106 133 l 106 133 b 98 141 84 140 75 130 l 75 130 b 66 121 65 107 73 100 z"},"}":{"x_min":0,"x_max":480,"ha":480,"o":"m 318 713 b 308 715 296 709 293 697 b 290 689 295 683 300 681 b 434 643 439 605 411 506 l 389 431 b 363 342 391 309 451 287 b 383 268 332 232 306 143 l 284 68 b 256 -31 229 -69 73 -107 b 66 -109 59 -115 56 -123 b 53 -135 61 -141 73 -139 b 252 -105 302 -41 332 62 l 354 141 b 377 219 414 268 517 268 b 533 268 543 276 546 287 b 550 298 544 306 528 306 b 425 306 416 355 439 433 l 461 512 b 491 615 477 679 318 713 z"},"Z":{"x_min":0,"x_max":667,"ha":667,"o":"m 572 47 l 151 47 l 705 657 b 705 658 705 658 706 659 b 706 659 707 660 707 661 b 708 661 708 662 708 663 b 709 664 709 664 709 665 b 710 666 710 667 710 667 b 710 668 710 669 711 670 b 711 671 711 671 711 672 b 711 673 711 673 711 674 b 711 674 711 674 711 674 b 711 675 711 676 711 677 b 711 678 711 679 710 679 b 710 680 710 681 710 682 b 709 682 709 683 709 684 b 709 684 708 685 708 686 b 707 686 707 687 707 688 b 706 688 706 689 705 689 b 705 690 704 691 703 692 b 703 692 703 692 703 692 b 703 692 702 692 702 693 b 701 693 700 694 699 695 b 699 695 698 695 698 695 b 697 696 696 696 695 697 b 695 697 694 697 693 697 b 692 698 692 698 691 698 b 690 698 689 698 688 698 b 688 698 687 698 687 698 l 211 698 b 197 698 186 687 186 674 b 186 660 197 649 211 649 l 631 649 l 78 39 b 77 39 77 38 77 38 b 76 37 76 37 75 36 b 75 35 74 34 74 34 b 74 33 73 32 73 32 b 73 31 73 30 72 29 b 72 28 72 28 72 27 b 72 26 72 25 72 24 b 72 24 71 23 71 23 b 71 23 71 22 71 22 b 72 21 72 20 72 20 b 72 19 72 18 72 17 b 72 17 73 16 73 15 b 73 14 73 14 74 13 b 74 12 74 12 75 11 b 75 10 75 9 76 9 b 76 8 77 8 77 7 b 78 6 78 6 79 5 b 79 5 79 5 79 5 b 80 4 80 4 81 4 b 81 3 82 3 83 2 b 83 2 84 1 85 1 b 86 1 86 0 87 0 b 88 0 88 0 89 -1 b 90 -1 91 -1 91 -1 b 92 -1 94 -2 95 -2 b 95 -2 96 -2 96 -2 l 572 -2 b 585 -2 596 9 596 23 b 596 36 585 47 572 47 z"},"x":{"x_min":0,"x_max":570,"ha":570,"o":"m 472 478 l 296 284 l 192 474 b 185 486 171 490 159 483 b 148 477 143 462 150 451 l 263 247 l 76 42 b 67 33 68 17 78 9 b 82 4 88 2 94 2 b 100 2 107 5 112 10 l 288 205 l 392 15 b 396 7 405 2 412 2 b 416 2 420 3 424 5 b 435 12 439 26 433 38 l 320 241 l 507 446 b 516 456 515 471 506 480 b 496 489 481 488 472 478 z"},")":{"x_min":0,"x_max":430,"ha":430,"o":"m 379 580 b 359 653 309 705 229 705 l 229 705 b 228 705 228 705 227 705 l 227 705 b 212 705 197 693 194 677 l 194 677 b 192 662 202 649 217 649 l 217 649 b 274 649 305 618 324 556 l 324 556 b 342 495 340 405 323 305 l 323 305 b 305 205 275 115 236 54 l 236 54 b 195 -8 152 -38 96 -39 l 96 -39 b 81 -39 66 -52 63 -67 l 63 -67 b 60 -82 71 -95 86 -95 l 86 -95 b 168 -95 236 -43 282 30 l 282 30 b 329 104 360 200 378 305 l 378 305 b 397 410 400 507 379 580 z"},"&":{"x_min":0,"x_max":696,"ha":696,"o":"m 569 421 b 556 420 545 409 546 395 b 546 393 546 391 546 388 b 546 359 537 344 525 334 b 513 323 495 318 478 318 b 476 318 474 318 473 319 b 461 319 450 320 439 320 b 352 320 298 294 269 259 b 240 224 237 187 236 169 b 237 162 237 158 237 157 b 239 145 249 136 261 136 b 262 136 264 136 265 136 b 278 138 287 150 286 163 l 286 163 b 286 163 286 163 286 164 b 285 165 285 166 285 169 b 285 180 288 206 307 227 b 325 249 361 271 439 271 b 447 271 455 271 464 270 b 464 268 464 266 464 264 b 464 253 463 243 461 232 b 444 131 345 47 245 48 b 157 49 99 109 98 192 b 98 202 99 213 101 223 b 113 295 167 360 235 390 b 237 391 238 392 240 393 b 241 393 241 394 242 395 b 242 395 243 395 243 396 b 243 396 244 397 245 397 b 253 408 252 423 241 432 l 241 432 b 220 448 208 474 208 505 b 208 512 208 519 210 526 b 221 593 289 651 355 650 b 414 649 451 611 452 555 b 452 549 451 542 450 534 b 448 521 456 508 470 506 b 483 504 496 513 498 526 b 500 536 501 546 501 555 b 501 595 486 632 460 658 b 434 684 397 699 355 699 b 262 698 178 626 162 534 b 160 525 159 515 159 505 b 159 473 169 443 186 419 b 118 379 67 311 52 232 b 50 218 49 205 49 192 b 49 138 69 89 104 54 b 139 20 189 -1 245 -1 b 245 -1 245 -1 245 -1 b 371 0 487 98 509 224 b 512 237 513 250 513 264 b 513 267 513 271 513 274 b 528 278 543 285 556 296 b 580 315 595 347 595 388 b 595 391 595 395 595 398 b 594 411 583 422 569 421 z"},"_":{"x_min":0,"x_max":600,"ha":600,"o":"m -5 -160 l 599 -160 b 611 -160 624 -150 628 -138 b 631 -126 624 -116 612 -116 l 8 -116 b -4 -116 -17 -126 -20 -138 b -24 -150 -17 -160 -5 -160 z"},"v":{"x_min":0,"x_max":582,"ha":582,"o":"m 459 483 b 447 490 433 486 426 475 l 195 87 l 101 468 b 98 481 86 489 73 486 b 60 482 53 469 56 457 l 163 20 b 163 19 164 17 165 16 b 165 16 165 16 165 16 b 165 14 166 13 167 12 b 167 12 167 12 167 12 b 168 11 169 10 170 9 b 170 9 170 8 171 8 b 171 7 172 7 173 6 b 174 6 174 6 174 6 b 174 6 174 6 174 6 b 175 5 177 4 179 3 b 179 3 179 3 180 3 b 181 3 183 2 185 2 b 187 2 189 2 191 3 b 191 3 191 3 191 3 b 191 3 192 3 192 3 b 194 4 195 4 196 5 b 197 5 197 6 198 6 b 199 7 200 7 201 8 b 201 9 202 9 202 10 b 203 11 204 12 205 13 b 205 14 206 14 206 14 l 467 450 b 474 461 470 476 459 483 z"},"O":{"x_min":0,"x_max":850,"ha":850,"o":"m 467 700 b 283 699 113 545 79 354 b 75 332 73 310 73 289 b 73 208 101 135 151 83 b 200 31 271 0 352 0 b 352 0 352 0 352 0 b 535 0 705 154 740 345 l 716 350 l 740 345 b 744 367 746 389 746 410 b 746 491 717 564 668 616 b 619 668 548 700 467 700 z m 692 354 b 663 185 507 48 352 48 b 216 49 123 150 122 289 b 122 307 124 326 127 345 b 156 513 311 651 465 651 b 466 651 466 651 467 651 b 603 650 696 549 697 410 b 697 392 695 373 692 354 z"},"(":{"x_min":0,"x_max":430,"ha":430,"o":"m 92 30 l 92 30 b 112 -43 162 -95 242 -95 l 242 -95 b 243 -95 243 -95 244 -95 l 244 -95 b 259 -95 274 -83 277 -67 l 277 -67 b 279 -52 269 -39 254 -39 l 254 -39 b 197 -39 166 -8 147 54 l 147 54 b 129 115 131 205 148 305 l 148 305 b 166 405 196 495 235 556 l 235 556 b 276 618 319 648 375 649 l 375 649 b 390 649 405 662 408 677 l 408 677 b 411 692 400 705 385 705 l 385 705 b 303 705 235 653 189 580 l 189 580 b 142 506 111 410 93 305 l 93 305 b 74 200 71 103 92 30 z"},"C":{"x_min":0,"x_max":719,"ha":719,"o":"m 379 0 b 463 0 545 28 614 75 b 625 83 628 98 620 109 b 612 120 597 123 586 115 l 586 115 b 525 74 452 49 379 49 b 226 50 122 154 122 295 b 122 311 123 328 126 346 b 155 513 322 652 494 651 b 567 651 629 626 674 586 b 684 577 699 578 708 588 b 717 598 717 614 706 623 b 652 671 578 700 494 700 b 297 699 113 547 78 354 b 74 334 73 314 73 295 b 73 212 105 137 159 84 b 214 31 291 0 379 0 z"},"W":{"x_min":0,"x_max":1102,"ha":1102,"o":"m 1061 662 b 1068 674 1064 689 1053 696 b 1041 703 1026 699 1019 687 l 661 87 l 558 507 b 555 518 544 526 532 525 b 523 525 515 521 510 513 l 256 87 l 110 681 b 107 694 94 702 81 699 b 68 695 60 682 63 669 l 222 18 b 223 15 224 12 226 10 b 226 9 226 9 227 9 b 227 8 228 7 229 6 b 229 6 230 6 230 5 b 231 5 232 4 233 3 b 233 3 233 3 233 3 b 234 3 234 3 234 3 b 235 2 237 1 239 0 b 239 0 240 0 240 0 b 242 0 244 -1 246 -1 b 246 -1 246 -1 246 -1 b 247 -1 247 0 248 0 b 249 0 251 0 252 0 b 252 0 252 0 252 0 b 252 0 253 0 253 1 b 255 1 256 1 257 2 b 258 2 258 3 259 3 b 260 4 261 5 262 5 b 262 6 263 6 263 7 b 265 8 266 9 266 10 b 267 11 267 11 267 11 l 524 441 l 627 18 b 628 16 628 15 629 13 l 629 13 b 629 12 630 11 631 10 b 631 9 631 9 632 9 b 632 8 633 7 634 6 b 634 6 635 6 635 5 b 636 5 637 4 638 3 b 638 3 638 3 638 3 b 638 3 639 3 639 3 b 640 2 642 1 644 0 b 644 0 645 0 645 0 b 647 0 649 -1 651 -1 b 651 -1 651 -1 651 -1 b 652 -1 652 0 653 0 b 654 0 656 0 657 0 b 657 0 657 0 657 0 b 657 0 658 0 658 1 b 660 1 661 1 662 2 b 663 2 663 3 664 3 b 665 4 666 5 667 5 b 667 6 668 6 668 7 b 670 8 670 9 671 10 b 672 11 672 11 672 11 l 1061 662 z"},"A":{"x_min":0,"x_max":646,"ha":646,"o":"m 518 182 l 550 20 b 552 8 562 0 574 0 b 575 0 577 0 579 0 b 592 3 600 16 598 29 l 468 680 b 466 692 455 700 443 700 b 434 700 425 696 421 687 l 61 36 b 55 24 59 10 71 3 b 75 1 79 0 83 0 b 91 0 100 5 104 13 l 197 182 l 518 182 z m 508 231 l 224 231 l 433 608 l 508 231 z"},"f":{"x_min":0,"x_max":362,"ha":362,"o":"m 327 699 b 288 699 251 690 222 664 b 194 637 179 600 170 550 l 161 498 l 96 498 b 83 498 70 487 67 474 b 65 460 74 449 87 449 l 153 449 l 78 23 b 75 10 84 -1 98 -1 b 111 -1 124 10 126 23 l 202 449 l 271 449 b 284 449 297 460 299 474 b 302 487 293 498 279 498 l 210 498 l 219 550 b 227 595 240 619 253 631 b 266 643 285 650 318 650 b 332 650 345 661 347 674 b 349 688 340 699 327 699 z"},"Q":{"x_min":0,"x_max":844,"ha":844,"o":"m 764 -50 b 757 -38 742 -37 730 -46 b 675 -82 632 -95 592 -95 b 545 -95 498 -74 452 -44 b 433 -31 415 -24 396 -20 l 505 26 b 505 26 505 26 505 26 b 634 81 742 208 768 353 b 802 548 682 708 495 710 b 309 708 132 548 97 353 b 66 175 166 24 328 2 l 228 -40 b 213 -47 206 -61 209 -74 b 210 -79 213 -82 215 -85 b 215 -85 216 -85 216 -85 b 216 -85 216 -85 216 -85 b 222 -90 234 -92 243 -87 b 243 -87 243 -87 244 -87 b 252 -82 295 -65 341 -65 b 367 -65 394 -69 420 -87 b 468 -118 521 -144 584 -144 b 584 -144 585 -144 585 -144 b 636 -144 693 -126 753 -85 b 766 -75 769 -60 764 -50 z m 146 353 b 177 524 330 660 486 660 b 643 660 750 524 719 353 b 689 184 535 48 379 48 b 222 48 116 184 146 353 z"},"w":{"x_min":0,"x_max":861,"ha":861,"o":"m 735 483 b 724 490 710 486 703 475 l 472 87 l 406 351 b 404 362 394 370 382 369 b 374 369 366 365 362 357 l 201 87 l 107 468 b 104 481 91 489 78 486 b 65 482 58 470 61 457 l 168 21 b 168 19 169 18 170 16 b 170 16 170 16 170 16 b 170 15 171 13 172 12 b 172 12 172 12 172 12 b 173 11 174 10 175 9 b 175 9 175 9 176 8 b 177 7 177 7 178 6 b 179 6 179 6 179 6 b 179 6 179 6 179 6 b 181 5 183 4 185 3 b 185 3 185 3 186 3 b 187 3 189 2 191 2 b 191 2 191 2 191 2 b 192 2 193 3 194 3 b 195 3 196 3 197 3 b 197 3 197 3 197 3 b 198 3 198 3 198 4 b 200 4 201 4 202 5 b 203 5 203 6 204 6 b 205 7 206 7 207 8 b 207 9 208 9 208 10 b 210 11 211 12 211 13 b 212 14 212 14 212 14 l 374 287 l 439 21 b 439 19 440 18 441 16 b 441 16 441 16 441 16 b 441 15 442 13 443 12 b 443 12 443 12 443 12 b 444 11 445 10 446 9 b 446 9 446 9 447 8 b 448 7 448 7 449 6 b 450 6 450 6 450 6 b 450 6 450 6 450 6 b 452 5 454 4 456 3 b 456 3 456 3 457 3 b 459 3 460 2 462 2 b 462 2 462 2 462 2 b 463 2 464 3 464 3 b 465 3 467 3 468 3 b 468 3 468 3 468 3 b 469 3 469 3 469 3 b 471 4 472 4 473 5 b 474 5 474 6 475 6 b 476 7 477 7 478 8 b 478 9 479 9 479 10 b 481 11 482 12 483 14 b 483 14 483 14 483 14 l 743 450 b 750 461 746 476 735 483 z"},"-":{"x_min":0,"x_max":408,"ha":408,"o":"m 85 328 l 85 328 l 298 328 l 298 328 b 308 328 317 336 317 348 l 317 348 b 317 359 308 366 298 366 l 85 366 l 85 366 b 74 366 66 359 66 348 l 66 348 b 66 336 74 328 85 328 z"},"E":{"x_min":0,"x_max":593,"ha":593,"o":"m 126 -2 b 128 -2 129 -2 130 -2 b 131 -2 131 -2 131 -2 b 132 -2 132 -2 132 -2 l 491 -2 b 504 -2 515 9 515 22 b 515 36 504 47 491 47 l 159 47 l 208 323 l 507 323 b 520 323 531 334 531 348 b 531 361 520 372 507 372 l 217 372 l 266 649 l 606 649 b 619 649 630 660 630 673 b 630 687 619 698 606 698 l 247 698 b 247 698 246 698 246 698 b 234 698 223 690 221 678 l 106 27 b 104 13 113 1 126 -2 z"},"s":{"x_min":0,"x_max":492,"ha":492,"o":"m 60 69 l 60 69 b 93 38 150 1 224 0 l 224 0 b 272 0 318 14 356 39 l 356 39 b 393 63 422 98 429 139 l 429 139 b 437 180 420 213 391 234 l 391 234 b 363 255 323 269 277 277 l 275 278 l 275 278 b 237 285 205 297 186 311 l 186 311 b 168 326 161 340 165 360 l 165 360 b 168 380 183 400 207 416 l 207 416 b 232 432 265 443 300 443 l 300 443 b 348 443 382 419 415 395 l 415 395 b 424 388 440 391 449 402 l 449 402 b 458 413 458 428 448 435 l 448 435 b 415 459 373 490 309 490 l 309 490 b 264 490 221 477 186 455 l 186 455 b 151 432 124 399 117 360 l 117 360 b 110 322 126 291 153 271 l 153 271 b 179 251 216 239 259 231 l 260 230 l 260 230 b 302 222 337 210 357 194 l 357 194 b 378 178 385 162 381 139 l 381 139 b 378 117 361 95 334 77 l 334 77 b 308 60 271 48 232 48 l 232 48 b 176 48 125 79 97 106 l 97 106 b 88 115 72 113 62 103 l 62 103 b 52 93 51 78 60 69 z"},">":{"x_min":0,"x_max":620,"ha":620,"o":"m 522 338 b 522 339 523 340 523 341 b 523 342 524 342 524 343 b 524 344 524 345 524 346 b 525 347 525 347 525 348 b 525 349 525 350 525 351 b 525 352 525 353 525 354 b 525 354 525 355 525 355 b 524 357 524 358 524 359 b 524 360 523 360 523 360 b 523 362 522 363 521 365 b 521 365 521 365 521 365 b 520 366 520 368 519 369 l 256 690 b 246 703 228 704 216 694 b 204 684 202 666 212 654 l 456 354 l 102 51 b 90 41 89 23 99 11 b 105 4 113 1 121 1 b 127 1 134 3 139 8 l 515 329 b 516 330 517 331 517 332 b 518 332 518 333 519 333 b 519 334 520 335 521 336 b 521 337 521 337 522 338 z"},"l":{"x_min":0,"x_max":249,"ha":249,"o":"m 245 699 b 232 702 219 693 217 679 l 102 28 b 100 15 108 2 122 0 b 123 0 125 0 126 0 b 138 0 148 8 150 20 l 265 671 b 267 684 258 697 245 699 z"},"8":{"x_min":0,"x_max":630,"ha":630,"o":"m 409 435 b 450 460 480 502 489 550 b 491 559 491 567 491 576 b 491 610 478 642 456 664 b 433 687 401 700 365 700 b 285 699 213 638 198 559 l 198 559 b 196 550 196 542 196 533 b 196 499 209 467 231 445 b 234 442 236 440 238 438 b 149 406 76 327 59 231 l 59 231 b 56 218 55 204 55 191 b 55 138 75 90 110 55 b 145 21 194 0 250 0 b 250 0 250 0 250 0 b 375 1 490 99 513 223 b 515 236 516 249 516 262 b 516 316 496 364 461 399 b 446 413 429 425 409 435 z m 221 554 l 245 550 b 254 605 310 653 365 652 b 413 651 443 620 443 576 b 443 570 443 565 442 559 b 433 504 377 456 322 457 b 274 458 244 489 244 533 b 244 539 244 544 245 550 l 221 554 z m 465 231 b 448 131 349 47 250 48 b 162 49 104 109 103 191 b 103 202 104 212 106 223 l 83 227 l 106 223 b 123 322 222 406 321 406 b 410 405 467 345 468 262 b 468 252 467 242 465 231 z"},"\\":{"x_min":0,"x_max":500,"ha":500,"o":"m 320 3 b 332 9 338 23 333 36 l 333 36 l 60 684 b 54 696 41 702 28 697 l 28 697 b 15 692 9 678 15 665 l 15 665 l 288 17 b 292 7 301 2 310 2 l 310 2 b 314 2 317 2 320 3 l 320 3 z"},"e":{"x_min":0,"x_max":609,"ha":609,"o":"m 58 205 b 58 148 78 97 114 60 b 150 23 200 1 258 1 b 259 1 259 1 259 1 b 343 1 422 45 473 110 b 482 120 480 134 470 142 b 460 151 445 149 436 139 b 393 85 326 49 259 49 b 168 50 106 115 106 205 b 106 215 106 225 108 235 l 513 235 b 524 235 533 244 536 254 b 536 256 537 258 537 260 b 538 269 539 277 539 286 b 539 343 518 394 482 431 b 446 468 396 490 338 490 b 205 489 86 383 62 250 b 59 234 58 219 58 205 z m 338 442 b 429 441 490 376 491 286 b 491 285 491 285 491 284 l 121 284 b 155 374 246 443 338 442 z"},"b":{"x_min":0,"x_max":660,"ha":660,"o":"m 115 -2 b 117 -2 118 -2 120 -2 b 131 -2 142 6 144 18 l 158 97 b 166 82 176 69 187 57 b 223 20 274 -2 332 -2 b 332 -2 332 -2 333 -2 b 464 -1 584 105 608 239 l 584 243 l 608 239 b 611 254 612 268 612 283 b 612 340 592 392 556 429 b 520 466 469 488 410 488 b 334 487 262 452 210 396 l 259 669 b 261 683 252 695 239 698 b 225 700 213 691 210 678 l 96 27 b 93 13 102 1 115 -2 z m 409 439 b 409 439 410 439 410 439 b 502 438 562 374 563 283 b 563 271 562 259 560 247 l 560 247 b 541 137 436 46 333 47 b 241 48 180 112 179 203 b 179 215 180 226 183 239 b 201 348 306 439 409 439 z"},"m":{"x_min":0,"x_max":951,"ha":951,"o":"m 141 12 b 141 12 141 13 141 13 b 142 14 142 16 142 17 l 189 284 b 204 369 288 441 372 440 b 447 439 495 389 496 319 b 496 311 495 303 494 295 b 493 294 493 293 493 292 l 446 26 b 444 13 452 0 465 -2 b 466 -2 467 -2 467 -2 b 468 -2 469 -2 470 -2 b 470 -2 470 -2 470 -2 b 470 -2 471 -2 471 -2 b 472 -2 473 -2 475 -2 b 475 -2 475 -2 475 -2 b 484 0 491 7 493 17 l 540 284 b 540 285 541 286 541 287 b 556 371 640 440 723 440 b 797 439 845 389 846 319 b 846 310 845 302 844 292 l 797 26 b 794 13 803 0 816 -2 b 818 -2 819 -2 820 -2 b 832 -2 842 6 844 17 l 891 284 b 893 296 894 308 894 319 b 894 366 876 409 846 439 b 815 470 772 488 723 488 b 646 487 575 445 531 383 b 523 404 511 423 495 439 b 465 470 421 488 372 488 b 313 487 256 462 214 421 l 220 460 b 223 473 214 485 201 487 b 188 490 176 481 173 468 l 142 293 b 142 293 142 293 142 292 l 95 26 b 93 13 102 0 115 -2 b 115 -2 116 -2 116 -2 b 117 -2 118 -2 119 -2 b 119 -2 119 -2 119 -2 b 120 -2 120 -2 121 -2 b 122 -2 123 -2 124 -2 b 124 -2 125 -2 125 -1 b 126 -1 127 -1 128 -1 b 128 0 129 0 129 0 b 130 1 131 1 132 1 b 132 2 133 2 133 2 b 134 3 135 4 135 4 b 136 5 136 5 136 5 b 137 6 138 7 138 8 b 139 8 139 8 139 9 b 140 10 140 11 141 12 z"},"#":{"x_min":0,"x_max":700,"ha":700,"o":"m 113 25 b 109 11 113 -4 130 -4 b 143 -4 155 5 159 18 l 216 187 l 423 187 l 368 25 b 364 11 368 -4 385 -4 b 398 -4 410 5 414 18 l 471 187 l 588 187 b 601 187 614 198 616 211 b 618 224 609 234 596 234 l 487 234 l 568 470 l 676 470 b 689 470 702 481 704 494 b 706 507 697 517 684 517 l 584 517 l 637 675 b 641 689 637 704 620 704 b 607 704 595 695 591 682 l 536 517 l 329 517 l 382 675 b 386 689 382 704 365 704 b 352 704 340 695 336 682 l 281 517 l 163 517 b 150 517 137 506 135 493 b 132 480 142 470 155 470 l 265 470 l 184 234 l 75 234 b 62 234 49 223 47 210 b 45 197 54 187 67 187 l 168 187 z m 232 234 l 313 470 l 520 470 l 439 234 z"},",":{"x_min":0,"x_max":230,"ha":230,"o":"m 56 -89 b 54 -99 61 -104 68 -104 b 77 -104 105 -90 128 -72 b 149 -54 164 -24 176 32 l 181 57 b 186 75 174 90 156 90 b 138 90 120 75 115 57 l 111 36 b 107 16 117 5 131 1 b 126 -34 108 -56 67 -76 b 61 -79 57 -84 56 -89 z"},"n":{"x_min":0,"x_max":613,"ha":613,"o":"m 445 28 b 442 15 451 2 464 0 b 466 0 466 0 467 0 b 479 0 489 8 491 19 l 538 284 b 540 296 541 308 541 319 b 541 367 523 409 493 439 b 463 470 419 488 370 488 b 312 487 256 462 213 421 l 220 460 b 222 473 214 485 200 487 b 187 490 174 481 172 468 l 142 293 b 142 293 142 293 142 292 l 95 28 b 93 15 101 2 114 0 b 115 0 115 0 116 0 b 117 0 118 0 119 0 b 119 0 119 0 119 0 b 119 0 120 0 121 0 b 122 0 122 0 123 0 b 124 0 124 0 125 1 b 126 1 127 1 128 1 b 128 2 129 2 129 2 b 130 3 131 3 132 3 b 132 4 132 4 133 4 b 134 5 134 6 135 6 b 135 7 136 7 136 7 b 137 8 137 9 138 10 b 138 10 138 10 139 11 b 139 12 140 13 140 14 b 140 14 141 15 141 15 b 141 16 142 18 142 19 l 188 285 b 203 370 288 441 370 440 b 445 439 492 389 493 319 b 493 310 492 302 491 292 l 445 28 z"},"h":{"x_min":0,"x_max":613,"ha":613,"o":"m 93 22 b 93 16 96 10 101 5 b 104 2 109 0 113 -1 b 114 -1 115 -1 115 -1 b 116 -1 117 -1 118 -1 b 118 -1 118 -1 118 -1 b 119 -1 119 -1 120 -1 b 121 -1 122 -1 123 -1 b 123 -1 124 -1 125 0 b 125 0 126 0 127 0 b 128 1 128 1 129 1 b 129 2 130 2 131 3 b 131 3 132 3 132 4 b 133 4 134 5 134 5 b 135 6 135 6 136 7 b 136 7 137 8 137 9 b 138 9 138 10 139 10 b 139 11 139 12 140 13 b 140 13 140 14 141 14 b 141 16 141 17 142 18 b 142 18 142 19 142 19 l 142 19 l 190 282 b 205 368 291 442 377 441 b 453 440 502 389 503 317 b 503 309 502 300 501 290 l 453 27 b 450 14 459 1 472 -1 b 474 -1 475 -1 477 -1 b 488 -1 499 7 501 19 l 549 282 b 551 294 552 306 552 317 b 552 365 534 409 503 440 b 471 471 427 490 377 490 b 316 489 258 463 215 422 l 257 670 b 259 683 250 696 237 698 b 223 701 211 692 208 678 l 94 27 b 93 26 93 24 93 22 z"},"z":{"x_min":0,"x_max":554,"ha":554,"o":"m 509 456 b 510 456 510 457 510 458 b 511 459 511 459 511 460 b 511 461 512 462 512 462 b 512 463 512 464 512 465 b 512 465 512 466 512 466 b 512 467 512 467 512 467 b 512 468 512 469 512 470 b 512 470 512 471 512 472 b 511 472 511 473 511 474 b 511 475 510 475 510 476 b 510 477 509 477 509 478 b 509 479 508 479 508 480 b 507 481 507 481 506 482 b 506 482 505 483 505 484 b 505 484 504 484 504 484 b 504 484 503 485 503 485 b 502 486 502 486 501 487 b 500 487 500 487 499 488 b 498 488 498 488 497 489 b 496 489 495 489 495 489 b 494 490 493 490 492 490 b 492 490 491 490 490 490 b 489 490 489 490 488 490 l 163 490 b 150 490 139 480 139 466 b 139 453 150 443 163 443 l 434 443 l 67 38 b 67 38 67 38 67 37 b 66 36 65 36 65 35 b 65 34 64 34 64 33 b 63 32 63 32 63 31 b 63 30 62 29 62 29 b 62 28 62 27 62 26 b 61 25 61 25 61 24 b 61 23 61 23 61 22 b 61 22 61 22 61 22 b 61 21 61 20 62 19 b 62 18 62 18 62 17 b 62 16 62 15 63 15 b 63 14 63 13 63 13 b 64 12 64 11 64 10 b 65 10 65 9 66 9 b 66 8 66 7 67 7 b 67 6 68 6 69 5 b 69 5 69 5 69 5 b 69 4 70 4 70 3 b 71 3 72 3 72 2 b 73 2 74 1 74 1 b 75 1 76 0 76 0 b 77 0 78 0 79 -1 b 79 -1 80 -1 81 -1 b 82 -1 83 -2 84 -2 b 85 -2 85 -2 85 -2 l 410 -2 b 423 -2 434 9 434 22 b 434 35 423 46 410 46 l 139 46 l 506 450 b 506 451 506 451 507 452 b 507 452 508 453 508 454 b 509 454 509 455 509 456 z"},"B":{"x_min":0,"x_max":594,"ha":594,"o":"m 126 1 b 128 1 129 1 131 1 b 131 1 132 1 132 1 b 132 1 133 1 133 1 l 330 1 b 440 2 540 87 560 197 b 562 209 563 220 563 232 b 564 279 546 322 515 352 b 499 368 480 380 459 389 b 504 419 538 467 548 523 b 550 533 551 543 551 553 b 551 594 536 632 509 658 b 482 685 444 701 401 701 l 248 701 b 248 701 247 701 247 701 b 235 701 224 693 221 681 l 107 30 b 104 16 113 4 126 1 z m 515 232 b 515 223 514 214 512 205 b 498 121 414 49 330 50 l 160 50 l 213 352 l 392 352 b 466 351 514 301 515 232 z m 502 553 b 502 546 502 539 500 531 b 489 461 418 401 348 402 l 222 402 l 266 652 l 401 652 b 462 651 501 611 502 553 z"},"K":{"x_min":0,"x_max":715,"ha":715,"o":"m 249 701 b 236 703 223 695 221 681 l 106 30 b 104 17 113 4 126 2 b 127 2 129 2 130 2 b 142 2 152 10 154 22 l 185 198 b 185 198 186 198 186 198 l 371 356 l 593 13 b 598 5 606 2 614 2 b 618 2 623 3 627 5 b 638 13 642 28 634 39 l 409 387 l 727 658 b 738 667 739 683 730 693 b 721 703 706 704 696 696 l 199 273 l 269 673 b 271 686 262 699 249 701 z"},"R":{"x_min":0,"x_max":625,"ha":625,"o":"m 480 186 b 480 178 479 170 477 162 b 472 133 470 111 470 92 b 470 64 475 44 485 30 b 495 16 511 10 521 10 b 521 10 521 10 522 10 b 528 10 532 11 533 12 b 546 16 554 29 550 42 b 546 54 535 61 524 60 b 522 63 519 72 519 92 b 519 107 521 127 526 153 b 527 164 528 175 528 186 b 529 252 488 295 451 317 b 525 348 583 415 598 496 b 600 508 601 519 601 531 b 601 578 583 621 552 651 b 522 682 478 700 429 700 l 233 700 b 232 700 232 700 232 700 b 220 700 209 692 207 680 l 92 29 b 90 16 99 3 112 1 b 114 0 115 0 117 0 b 128 0 139 9 141 20 l 190 300 l 365 300 b 365 300 366 300 367 300 b 379 297 409 288 434 270 b 459 251 479 227 480 186 z m 252 651 l 429 651 b 503 650 551 601 552 531 b 552 522 551 513 550 504 b 535 420 451 348 367 349 l 199 349 l 252 651 z"},"T":{"x_min":0,"x_max":648,"ha":648,"o":"m 191 2 b 192 1 193 1 195 1 b 207 1 217 10 219 21 l 330 652 l 545 652 b 558 652 569 663 569 677 b 569 690 558 701 545 701 l 74 701 b 61 701 50 690 50 677 b 50 663 61 652 74 652 l 280 652 l 171 30 b 168 17 177 4 191 2 z"},"P":{"x_min":0,"x_max":583,"ha":583,"o":"m 245 700 b 234 700 223 692 221 680 l 106 29 b 104 16 113 3 126 1 b 127 0 129 0 130 0 b 142 0 152 8 154 20 l 203 300 l 381 300 b 491 301 591 387 611 496 b 613 508 614 519 614 531 b 614 578 597 621 566 651 b 535 682 492 700 443 700 l 246 700 b 246 700 246 700 245 700 z m 565 531 b 565 522 565 513 563 504 b 549 420 464 348 381 349 l 212 349 l 265 651 l 443 651 b 517 650 565 601 565 531 z"},"|":{"x_min":0,"x_max":286,"ha":286,"o":"m 123 -116 b 121 -128 130 -138 142 -138 b 154 -138 165 -128 167 -116 l 324 774 b 327 786 318 796 306 796 b 294 796 283 786 280 774 l 123 -116 z"},"t":{"x_min":0,"x_max":400,"ha":400,"o":"m 315 490 l 189 490 l 220 673 b 222 686 213 698 200 701 b 186 703 174 694 171 681 l 171 681 l 140 490 l 67 490 b 53 490 42 479 42 465 b 42 452 53 441 67 441 l 131 441 l 67 91 b 67 86 66 81 66 76 b 66 56 74 37 88 23 b 102 9 121 1 142 1 b 142 1 142 1 142 1 b 156 1 167 12 167 26 b 167 39 156 50 142 50 b 124 51 116 60 115 76 b 115 78 115 81 116 83 l 181 441 l 315 441 b 328 441 339 452 339 465 b 339 479 328 490 315 490 z"},"M":{"x_min":0,"x_max":868,"ha":868,"o":"m 668 -1 b 670 -1 671 -1 672 -1 b 684 -1 694 7 696 19 l 811 670 b 814 683 805 696 791 698 b 790 699 788 699 786 698 b 779 699 772 696 767 690 l 455 342 l 269 686 b 264 694 255 699 246 698 b 234 699 223 690 221 678 l 106 27 b 104 14 113 1 126 -1 b 128 -1 129 -1 131 -1 b 142 -1 153 7 155 19 l 258 603 l 428 291 b 432 283 441 278 449 278 b 450 278 450 278 451 278 b 451 278 452 278 452 278 b 459 278 466 281 470 286 l 749 596 l 648 27 b 646 14 655 1 668 -1 z"},"g":{"x_min":0,"x_max":660,"ha":660,"o":"m 257 -1 b 257 -1 257 -1 258 -1 b 330 -1 400 35 451 89 l 443 41 b 425 -62 323 -149 224 -148 b 194 -148 168 -141 146 -130 b 134 -124 121 -128 114 -139 b 108 -151 112 -165 124 -171 b 153 -187 187 -196 224 -196 b 349 -195 466 -95 490 32 l 526 238 b 526 238 526 238 526 238 l 526 238 l 526 238 l 526 238 b 526 238 526 238 526 238 l 565 459 b 568 473 559 485 545 488 b 532 490 521 481 518 468 l 518 468 l 504 388 b 497 403 487 417 476 429 b 440 466 390 488 333 488 b 207 487 89 379 65 247 b 62 231 60 216 60 201 b 60 144 81 93 115 58 b 150 21 200 -1 257 -1 z m 112 238 b 130 349 234 439 332 439 b 332 439 333 439 333 439 b 422 439 482 375 483 282 b 483 271 482 259 479 247 b 460 134 357 46 258 47 b 169 47 109 109 108 201 b 108 213 109 225 112 238 z"},"j":{"x_min":0,"x_max":249,"ha":249,"o":"m 237 586 l 242 608 b 244 621 235 632 221 635 b 210 637 198 629 195 617 l 192 594 b 189 581 198 568 210 566 b 211 566 212 566 215 566 b 225 566 236 574 237 586 z m 195 490 b 182 492 169 484 168 472 l 168 472 l 65 -103 b 62 -124 38 -144 19 -143 b 5 -143 -5 -153 -5 -166 b -5 -179 5 -190 19 -190 b 64 -189 103 -155 111 -111 l 213 463 b 216 476 208 488 195 490 z"},"i":{"x_min":0,"x_max":281,"ha":281,"o":"m 116 0 b 118 0 118 0 120 0 b 131 0 141 8 143 19 l 221 461 b 224 475 215 487 202 490 b 189 491 176 483 174 470 l 97 27 b 94 15 103 2 116 0 z m 243 584 l 247 606 b 249 619 241 632 227 634 b 215 636 202 627 200 615 l 196 592 b 194 579 202 567 215 564 b 216 564 218 564 219 564 b 231 564 241 572 243 584 z"},"y":{"x_min":0,"x_max":588,"ha":588,"o":"m 502 480 b 499 484 494 487 488 488 b 476 490 463 481 461 469 l 461 469 l 461 469 b 461 469 461 469 461 469 l 461 469 l 414 203 b 400 118 316 47 233 48 b 159 48 111 98 110 167 b 110 176 110 185 112 194 l 159 460 b 162 473 153 485 140 488 b 127 490 114 481 112 469 l 66 203 b 64 191 63 179 63 167 b 63 121 80 78 110 48 b 141 18 186 1 233 1 b 233 1 233 1 233 1 b 292 1 348 26 390 65 l 386 42 b 369 -59 268 -146 166 -145 b 137 -145 111 -138 90 -127 b 78 -121 64 -125 58 -136 b 52 -148 56 -163 68 -170 b 96 -184 130 -193 166 -193 b 293 -192 410 -93 433 34 l 508 460 b 509 462 509 465 508 467 b 508 471 506 476 502 480 z"},"@":{"x_min":0,"x_max":980,"ha":980,"o":"m 136 84 b 189 31 264 0 350 0 b 380 0 410 3 438 10 b 452 13 460 27 456 40 b 453 53 440 61 427 58 b 402 52 376 48 350 48 b 202 49 102 153 102 293 b 102 310 103 327 106 345 b 135 513 299 651 465 651 b 613 650 713 547 714 406 b 714 389 712 372 709 354 b 701 304 680 257 651 215 b 651 215 651 214 650 214 b 644 205 612 169 580 163 b 576 162 573 162 571 162 b 563 162 562 163 560 166 b 558 168 556 173 556 180 b 556 181 557 183 557 185 l 583 334 l 583 337 b 584 340 584 342 585 345 b 587 357 588 369 588 380 b 588 423 573 463 546 491 b 519 520 480 537 437 537 b 338 536 249 455 231 354 b 228 342 228 331 228 319 b 227 276 243 237 270 208 b 297 179 335 162 379 162 b 428 162 475 183 512 216 l 508 192 l 508 180 b 508 165 511 149 521 136 b 532 122 550 112 571 113 b 577 113 584 114 591 115 b 652 131 689 185 691 186 b 724 234 747 288 757 345 b 761 366 763 387 763 406 b 763 489 732 563 679 615 b 626 668 551 700 465 700 b 272 699 93 546 58 354 b 55 333 53 313 53 293 b 53 210 83 137 136 84 z m 279 345 b 292 423 365 488 435 488 l 437 488 b 498 487 538 444 539 380 b 539 371 539 363 537 354 b 524 275 450 210 379 211 b 318 212 277 255 276 319 b 276 328 277 336 279 345 z"},".":{"x_min":0,"x_max":230,"ha":230,"o":"m 201 58 b 207 90 188 115 154 115 b 121 115 94 90 88 58 b 82 25 102 0 135 0 b 169 0 195 25 201 58 z"},"p":{"x_min":0,"x_max":660,"ha":660,"o":"m 115 -204 b 117 -204 118 -204 119 -204 b 131 -204 141 -196 143 -184 l 193 101 b 202 87 211 73 223 63 b 259 26 309 5 367 5 b 367 5 367 5 367 5 b 495 5 614 109 638 241 b 641 256 642 271 642 284 b 642 341 621 393 585 429 b 551 466 499 488 441 488 b 368 487 298 452 246 397 l 257 459 b 260 473 251 485 237 488 b 224 490 211 481 209 468 l 170 249 l 170 249 l 170 249 l 95 -175 b 93 -189 102 -201 115 -204 z m 440 439 b 440 439 440 439 441 439 b 532 438 592 375 593 284 b 593 273 592 261 590 249 b 572 141 467 52 367 53 b 277 54 216 116 215 205 b 215 217 216 228 218 241 b 237 349 340 439 440 439 z"},"X":{"x_min":0,"x_max":722,"ha":722,"o":"m 426 345 l 709 657 b 718 667 718 683 707 692 b 698 701 682 700 673 690 l 401 390 l 237 686 b 230 698 215 702 203 695 b 192 689 187 674 194 662 l 366 352 l 82 39 b 73 29 74 14 84 5 b 89 0 95 -2 100 -2 b 107 -2 114 1 119 6 l 391 307 l 555 11 b 559 3 568 -2 576 -2 b 580 -2 584 -1 588 1 b 600 8 604 23 598 35 l 426 345 z"},"*":{"x_min":0,"x_max":430,"ha":430,"o":"m 186 422 b 183 410 190 400 202 400 b 214 400 225 410 226 422 l 237 531 l 317 469 b 323 465 326 463 332 463 b 343 463 354 473 356 484 b 358 495 352 500 345 503 l 251 552 l 363 601 b 370 604 378 609 380 620 b 382 631 375 641 364 641 b 358 641 353 639 347 635 l 245 573 l 272 682 b 275 694 268 704 256 704 b 244 704 233 694 232 682 l 221 573 l 141 635 b 135 639 133 641 126 641 b 114 640 104 631 102 620 b 100 611 105 605 113 601 l 207 552 l 95 503 b 88 500 80 493 78 484 b 76 473 83 463 94 463 b 100 463 105 465 111 469 l 213 531 l 186 422 z"},"Y":{"x_min":0,"x_max":604,"ha":604,"o":"m 581 658 b 590 668 589 683 579 692 b 569 701 553 700 544 690 l 269 387 l 104 686 b 97 698 82 702 70 695 b 59 689 54 674 61 662 l 239 341 l 183 27 b 181 14 190 1 203 -1 b 205 -1 206 -1 208 -1 b 219 -1 230 7 232 19 l 287 334 l 581 658 z"},"c":{"x_min":0,"x_max":571,"ha":571,"o":"m 58 208 b 58 150 80 98 119 60 b 157 23 211 1 273 1 b 273 1 273 1 273 1 b 331 1 388 21 436 53 b 447 61 449 75 442 86 b 435 97 420 100 409 93 l 409 93 b 368 65 320 49 273 49 b 173 50 106 117 106 208 b 106 219 107 229 109 241 b 127 350 238 443 350 442 b 399 442 439 426 468 400 b 477 391 492 392 501 402 b 510 412 509 427 500 436 b 462 470 409 490 350 490 b 213 489 86 384 62 249 b 59 235 58 222 58 208 z"},"!":{"x_min":0,"x_max":252,"ha":252,"o":"m 239 698 b 226 700 213 691 211 678 l 122 176 b 120 162 128 150 142 147 b 143 147 145 147 146 147 b 158 147 168 155 170 167 l 259 669 b 261 682 252 695 239 698 z m 128 70 b 115 72 102 63 100 50 l 96 27 b 93 13 102 1 116 -2 b 117 -2 118 -2 120 -2 b 131 -2 142 6 144 18 l 148 41 b 150 55 141 67 128 70 z"},"/":{"x_min":0,"x_max":500,"ha":500,"o":"m 12 1 b 15 0 18 0 22 0 l 22 0 b 31 0 40 5 44 15 l 317 663 l 317 663 b 323 676 317 690 304 695 l 304 695 b 291 700 278 694 272 682 l -1 34 l -1 34 b -6 21 0 7 12 1 z"},"[":{"x_min":0,"x_max":430,"ha":430,"o":"m 101 -104 b 98 -118 107 -130 121 -130 l 353 -130 b 363 -130 374 -121 376 -111 b 378 -101 372 -92 362 -92 l 150 -92 l 307 662 l 519 662 b 529 662 541 671 543 681 b 545 691 538 700 528 700 l 296 700 b 282 700 267 688 264 674 z"},"6":{"x_min":0,"x_max":642,"ha":642,"o":"m 335 464 b 268 464 204 436 155 391 b 170 428 188 465 209 498 b 267 585 348 649 458 653 b 471 654 482 665 481 679 b 481 692 469 703 456 702 b 327 697 231 621 168 525 b 105 428 72 311 65 215 b 65 214 65 213 65 212 b 64 207 64 202 64 197 b 64 143 85 93 120 58 b 155 23 205 2 262 2 b 262 2 262 2 262 2 b 390 3 507 102 530 229 l 506 233 l 530 229 b 532 243 534 256 534 269 b 534 324 513 373 478 408 b 442 443 392 464 335 464 z m 482 237 l 482 237 b 465 136 364 50 262 51 b 173 52 114 113 113 197 b 113 207 114 218 116 229 b 133 330 233 415 334 415 b 334 415 335 415 335 415 b 425 414 484 353 485 269 b 485 259 484 248 482 237 z"},"r":{"x_min":0,"x_max":439,"ha":439,"o":"m 115 2 b 116 1 118 1 119 1 b 131 1 141 9 143 21 l 181 238 b 182 239 183 241 184 244 b 194 263 221 314 263 359 b 305 403 359 441 422 440 b 435 440 446 451 446 464 b 446 478 435 488 422 488 b 328 488 257 427 210 369 b 208 367 205 364 203 361 l 220 460 b 222 473 214 486 201 488 b 188 490 176 481 174 468 l 135 250 b 135 249 135 249 135 249 l 96 29 b 93 16 102 4 115 2 z"},"2":{"x_min":0,"x_max":590,"ha":590,"o":"m 572 508 b 572 549 560 590 535 624 b 498 675 438 701 376 701 b 321 701 264 682 214 643 l 174 612 b 164 604 162 588 170 578 b 178 567 194 565 205 573 l 205 573 l 244 605 b 286 637 333 652 376 652 b 425 652 468 633 496 595 b 514 570 523 540 523 508 b 523 450 492 385 435 340 l 57 45 b 46 37 44 21 52 11 b 57 4 64 1 72 1 b 72 1 73 1 73 1 b 74 1 74 1 75 1 l 465 1 b 479 1 490 12 490 26 b 490 39 479 50 465 50 l 143 50 l 465 302 b 533 355 571 433 572 508 z"},"{":{"x_min":0,"x_max":480,"ha":480,"o":"m 287 -139 b 297 -141 309 -135 312 -123 b 315 -115 310 -109 305 -107 b 171 -69 166 -31 194 68 l 216 143 b 242 232 214 265 154 287 b 222 306 273 342 299 431 l 321 506 b 349 605 376 643 532 681 b 539 683 546 689 549 697 b 552 709 544 715 532 713 b 353 679 303 615 273 512 l 251 433 b 228 355 191 306 88 306 b 72 306 62 298 59 287 b 55 276 61 268 77 268 b 180 268 189 219 166 141 l 144 62 b 114 -41 128 -105 287 -139 z"},"9":{"x_min":0,"x_max":642,"ha":642,"o":"m 479 644 b 444 679 394 700 337 700 b 210 699 92 600 69 473 l 69 473 b 67 460 66 446 66 433 b 66 379 86 329 122 294 b 157 259 207 238 264 238 b 331 239 395 266 444 311 b 430 274 412 238 390 205 b 332 117 251 54 142 49 b 128 49 118 37 118 24 b 119 10 130 0 143 0 b 143 0 143 0 144 0 b 273 5 368 82 431 178 b 494 274 527 391 535 487 b 535 488 535 489 535 491 b 535 496 535 500 535 505 b 535 560 515 609 479 644 z m 264 287 b 174 288 116 349 115 433 b 115 443 116 454 118 465 l 94 469 l 118 465 b 135 567 236 652 337 651 b 427 650 485 590 486 505 b 486 495 485 484 483 473 b 466 372 365 286 264 287 z"}," ":{"x_min":0,"x_max":300,"ha":300,"o":""},"I":{"x_min":0,"x_max":305,"ha":305,"o":"m 137 -2 b 149 -2 159 6 161 18 l 276 669 b 278 682 269 695 256 697 b 243 699 230 691 228 677 l 113 26 b 111 13 119 0 133 -2 b 134 -2 136 -2 137 -2 z"},"H":{"x_min":0,"x_max":760,"ha":760,"o":"m 249 697 b 236 699 223 691 221 677 l 106 26 b 104 13 113 0 126 -2 b 128 -2 129 -2 130 -2 b 142 -2 152 6 154 18 l 208 323 l 567 323 l 515 26 b 512 13 521 0 535 -2 b 536 -2 537 -2 539 -2 b 550 -2 561 6 563 18 l 678 669 b 680 682 671 695 658 697 b 645 699 632 691 630 677 l 576 372 l 217 372 l 269 669 b 272 682 263 695 249 697 z"},"4":{"x_min":0,"x_max":664,"ha":664,"o":"m 554 194 l 511 194 l 596 672 b 596 674 596 676 596 677 b 596 678 596 678 596 679 b 596 680 596 681 596 682 b 595 683 595 683 595 684 b 595 685 594 686 594 686 b 594 687 593 688 593 688 b 593 689 592 690 592 691 b 591 691 591 692 590 693 b 590 693 589 694 589 694 b 589 694 589 694 589 694 b 588 695 586 696 585 697 b 582 699 579 700 576 701 b 576 701 576 701 576 701 b 576 701 575 701 575 701 b 574 701 572 701 571 701 b 570 701 570 701 569 701 b 568 701 567 701 567 701 b 566 700 565 700 564 700 b 563 700 563 699 562 699 b 561 699 560 698 560 698 b 559 698 558 697 558 697 b 557 696 556 695 555 695 b 555 694 554 694 554 694 l 554 694 b 554 694 554 694 554 694 l 57 187 b 47 177 47 162 57 152 b 62 147 68 145 74 145 b 74 145 75 145 75 145 b 75 145 76 145 76 145 l 453 145 l 433 30 b 430 17 439 4 453 2 b 454 1 455 1 457 1 b 469 1 479 10 481 21 l 503 145 l 554 145 b 568 145 579 156 579 170 b 579 183 568 194 554 194 z m 132 194 l 534 603 l 462 194 l 132 194 z"},"~":{"x_min":0,"x_max":460,"ha":460,"o":"m 121 254 b 133 281 144 292 166 292 b 200 292 256 251 294 251 b 330 251 354 268 373 326 b 374 329 375 335 375 338 b 375 348 367 355 357 355 b 348 355 342 347 339 341 b 327 314 316 303 294 303 b 260 303 204 344 166 344 b 130 344 106 327 87 269 b 86 266 85 260 85 257 b 85 247 93 240 103 240 b 113 240 118 248 121 254 z"},"D":{"x_min":0,"x_max":719,"ha":719,"o":"m 126 -1 b 128 -1 129 -1 130 -1 b 131 -1 131 -1 131 -1 b 131 -1 131 -1 131 -1 l 261 -1 b 454 0 633 153 668 345 b 671 366 673 386 673 406 b 673 488 643 562 590 615 b 537 668 462 699 376 699 l 246 699 b 246 699 246 699 245 699 b 234 699 223 691 221 679 l 106 28 b 104 14 113 2 126 -1 z m 266 650 l 376 650 b 524 649 623 546 624 406 b 624 389 623 371 620 353 b 591 186 427 47 261 48 l 160 48 l 266 650 z"},"^":{"x_min":0,"x_max":500,"ha":500,"o":"m 278 659 l 370 502 b 376 491 388 488 404 488 b 414 488 420 494 421 499 b 421 503 421 506 418 512 l 316 688 b 309 699 303 706 291 706 l 283 706 b 271 706 263 699 252 688 l 88 512 b 83 506 81 503 81 499 b 80 494 84 488 93 488 b 108 488 120 491 130 502 l 278 659 z"},"0":{"x_min":0,"x_max":710,"ha":710,"o":"m 372 700 b 302 700 236 658 183 596 b 130 534 90 449 73 354 b 68 324 65 295 65 267 b 65 193 83 128 115 80 b 148 32 198 0 257 0 b 257 0 257 0 258 0 b 328 0 394 42 447 104 b 500 167 541 252 557 346 l 533 350 l 557 346 b 562 376 565 405 565 433 b 565 507 548 572 515 621 b 482 669 432 700 372 700 z m 509 354 b 494 269 457 191 410 136 b 363 80 308 49 258 49 b 216 49 182 69 156 107 b 130 145 114 201 114 267 b 114 292 116 319 121 346 b 136 432 173 509 220 565 b 267 620 322 651 372 651 b 372 651 372 651 372 651 b 414 651 448 631 474 593 b 500 555 516 499 516 433 b 516 408 514 382 509 354 z"},"F":{"x_min":0,"x_max":600,"ha":600,"o":"m 126 2 b 128 2 129 2 131 2 b 142 2 153 10 155 22 l 209 327 l 507 327 b 520 327 531 338 531 352 b 531 365 520 376 507 376 l 217 376 l 266 653 l 606 653 b 619 653 630 664 630 677 b 630 691 619 702 606 702 l 248 702 b 247 702 247 702 246 702 b 234 702 223 694 221 682 l 107 31 b 104 17 113 5 126 2 z"},"`":{"x_min":0,"x_max":500,"ha":500,"o":"m 271 592 b 278 592 285 596 285 601 b 286 605 285 609 283 612 l 234 705 b 228 717 221 723 209 723 b 190 723 165 710 164 700 b 163 694 167 688 172 682 l 241 605 b 251 594 258 592 271 592 z"},"k":{"x_min":0,"x_max":560,"ha":560,"o":"m 451 -2 b 455 -2 460 -1 464 2 b 476 9 479 24 471 35 l 322 265 l 547 456 b 557 465 558 480 549 490 b 541 501 525 502 515 493 l 177 206 l 258 669 b 261 682 252 695 239 697 b 225 700 213 691 210 677 l 95 26 b 93 13 102 0 115 -2 b 117 -2 118 -2 120 -2 b 131 -2 141 6 144 18 l 163 130 b 164 130 164 130 164 131 l 285 233 l 430 9 b 435 2 443 -2 451 -2 z"},"u":{"x_min":0,"x_max":613,"ha":613,"o":"m 509 488 b 496 490 484 481 482 468 l 435 204 b 421 119 336 48 253 49 b 179 50 132 99 131 169 b 131 177 132 186 133 195 l 179 460 b 182 473 173 486 161 488 b 148 490 136 481 133 468 l 86 204 b 84 192 83 180 83 169 b 83 122 101 80 131 50 b 162 19 204 1 253 1 b 253 1 253 1 253 1 b 362 2 462 86 482 195 l 528 460 b 531 473 522 486 509 488 z"},"]":{"x_min":0,"x_max":430,"ha":430,"o":"m 499 674 b 502 688 493 700 479 700 l 247 700 b 237 700 226 691 224 681 b 222 671 228 662 238 662 l 450 662 l 293 -92 l 81 -92 b 71 -92 59 -101 57 -111 b 55 -121 62 -130 72 -130 l 304 -130 b 318 -130 333 -118 336 -104 z"},"U":{"x_min":0,"x_max":814,"ha":814,"o":"m 724 701 b 711 703 698 694 696 681 l 626 288 b 604 158 476 49 347 50 b 232 51 155 130 154 239 b 154 252 155 266 158 280 l 227 672 b 229 686 221 698 207 701 b 194 703 181 694 179 681 l 110 288 b 107 271 105 255 105 239 b 105 172 130 112 173 69 b 216 27 277 1 346 1 b 346 1 346 1 347 1 b 502 2 646 125 674 280 l 744 672 b 746 686 737 698 724 701 z"},"o":{"x_min":0,"x_max":625,"ha":625,"o":"m 541 286 b 541 342 522 394 487 430 b 452 467 402 490 345 490 b 216 489 98 382 74 249 b 71 233 70 218 70 204 b 70 147 90 96 125 59 b 160 22 210 0 266 0 b 267 0 267 0 267 0 b 395 0 513 107 537 240 l 514 245 l 537 240 b 540 256 541 271 541 286 z m 490 249 b 471 138 368 46 267 47 b 178 48 119 112 118 204 b 118 215 119 228 121 240 b 140 351 243 442 343 442 b 344 442 344 442 345 442 b 433 441 493 377 494 286 b 494 274 492 261 490 249 z"},"N":{"x_min":0,"x_max":790,"ha":790,"o":"m 106 30 b 104 17 113 4 126 2 b 127 2 129 2 130 2 b 142 2 152 10 154 22 l 257 604 l 576 18 b 577 17 578 16 578 14 b 582 8 588 3 596 2 b 597 2 598 2 600 2 b 611 2 622 10 624 22 l 738 669 b 740 683 732 695 718 698 b 705 700 692 691 690 678 l 588 98 l 266 689 b 260 701 245 705 233 699 b 226 694 221 687 221 679 b 221 679 221 678 220 678 l 106 30 z"},"+":{"x_min":0,"x_max":620,"ha":620,"o":"m 522 381 l 348 381 l 379 555 b 382 572 370 589 353 592 b 335 596 318 584 315 566 l 282 381 l 97 381 b 79 381 64 366 64 348 b 64 330 79 315 97 315 l 270 315 l 240 141 b 237 123 249 107 266 103 b 268 103 270 103 272 103 b 288 103 301 114 304 130 l 337 315 l 522 315 b 540 315 554 330 554 348 b 554 366 540 381 522 381 z"},"G":{"x_min":0,"x_max":800,"ha":800,"o":"m 380 2 b 464 2 546 30 614 77 b 618 79 620 83 622 86 b 622 86 622 87 622 87 b 623 87 623 88 623 88 b 624 90 625 92 625 95 l 667 333 b 670 346 661 359 647 361 b 646 362 644 362 642 362 b 642 362 641 362 641 362 l 429 362 b 416 362 405 351 405 337 b 405 324 416 313 429 313 l 614 313 l 579 112 b 519 74 450 51 380 51 b 226 52 123 156 122 297 b 122 313 124 330 127 348 b 155 515 323 654 495 653 b 568 653 630 628 674 588 b 684 579 700 580 709 590 b 718 600 717 616 707 625 b 653 673 579 702 495 702 b 297 701 113 549 79 356 b 75 336 73 316 73 297 b 73 214 105 139 160 86 b 214 33 291 2 380 2 z"},"q":{"x_min":0,"x_max":660,"ha":660,"o":"m 430 -206 b 431 -206 432 -206 434 -206 b 445 -206 456 -198 458 -186 l 573 459 b 575 473 566 485 553 488 b 540 490 527 481 525 468 l 511 389 b 502 403 493 417 481 429 b 445 466 396 488 338 488 b 207 487 88 381 64 249 b 61 234 60 220 60 205 b 60 148 81 98 117 61 b 152 24 202 2 260 2 b 260 2 260 2 260 2 b 336 3 408 38 458 94 l 410 -177 b 408 -191 416 -203 430 -206 z m 260 51 b 171 52 110 116 109 205 b 109 217 110 228 112 241 l 88 245 l 112 241 b 131 350 234 440 338 439 b 427 438 488 374 489 285 b 489 273 488 262 486 249 l 486 249 b 467 141 364 50 260 51 z"},"d":{"x_min":0,"x_max":660,"ha":660,"o":"m 261 1 b 262 1 262 1 262 1 b 338 1 410 37 462 93 l 451 30 b 448 16 457 4 471 1 b 472 1 473 1 475 1 b 486 1 497 9 499 21 l 614 672 b 616 686 607 698 594 701 b 581 703 568 694 565 681 l 515 392 b 506 406 497 420 485 432 b 449 469 398 491 340 491 b 208 490 88 384 64 250 b 61 235 60 220 60 206 b 60 149 80 97 116 60 b 152 23 203 1 261 1 z m 88 246 l 112 242 b 131 352 236 443 340 442 b 431 441 492 377 493 286 b 493 274 492 262 490 250 l 490 250 b 471 140 366 49 262 50 b 170 51 110 115 109 206 b 109 218 110 229 112 242 l 88 246 z"},"1":{"x_min":0,"x_max":335,"ha":335,"o":"m 232 672 b 232 673 232 674 232 675 b 233 676 233 676 232 677 b 232 678 232 679 232 680 b 232 680 232 681 232 682 b 232 683 231 683 231 684 b 231 685 230 686 230 686 b 230 687 230 687 230 687 b 229 688 229 688 229 689 b 228 689 228 690 228 691 b 227 691 226 692 226 692 b 225 693 225 694 224 694 b 224 695 223 695 222 696 b 222 696 221 696 220 697 b 220 697 219 698 218 698 b 218 698 217 699 216 699 b 215 699 215 699 214 699 b 213 700 213 700 212 700 b 212 700 212 700 211 700 b 211 700 210 700 209 700 b 208 700 207 700 207 700 b 206 700 205 700 204 700 b 204 700 203 700 202 699 b 201 699 201 699 200 699 b 199 698 198 698 197 698 b 197 697 197 697 197 697 l 46 616 b 34 610 30 595 36 583 b 41 575 49 570 58 570 b 62 570 66 571 69 573 l 175 630 l 69 29 b 67 16 76 3 89 1 b 91 0 92 0 93 0 b 105 0 115 9 117 20 l 232 672 b 232 672 232 672 232 672 z"},"5":{"x_min":0,"x_max":605,"ha":605,"o":"m 554 699 l 228 699 b 223 699 219 698 215 695 b 209 692 204 687 202 680 l 117 395 b 116 391 116 387 117 384 b 117 379 119 374 122 370 b 131 360 147 358 158 367 b 202 405 255 424 303 424 b 351 424 394 406 422 371 b 445 344 456 310 456 274 b 456 216 427 152 372 106 b 328 68 275 49 227 49 b 179 49 136 67 108 102 b 99 113 83 114 72 106 b 62 97 60 81 69 70 l 69 70 b 108 23 166 -1 227 -1 b 227 -1 227 -1 227 -1 b 288 -1 351 22 405 67 b 470 123 506 200 506 274 b 506 320 491 366 461 403 b 422 451 363 474 303 474 b 263 474 223 464 184 445 l 245 649 l 554 649 b 568 649 580 660 580 674 b 580 688 568 699 554 699 z"}}}
